<?xml version="1.0" encoding="utf-8"?>
<svg version="1.1" id="Ebene_1" xmlns="http://www.w3.org/2000/svg" xmlns:xlink="http://www.w3.org/1999/xlink" x="0px"
  y="0px"
  viewBox="0 0 3000 3000" style="enable-background:new 0 0 3000 3000;" xml:space="preserve">
<style type="text/css">
	.st0{display:none;fill:#3F3F3F;}
	.st1{fill:#FFFFFF;}
	.st2{fill:#40B0E5;}
	.st3{fill:#69C6DE;}
	.st4{fill:url(#SVGID_1_);}
	.st5{fill:url(#SVGID_2_);}
	.st6{fill:#1EB8DA;}
	.st7{display:none;fill:#40B0E5;}
	.st8{font-family:'NexaBold';}
	.st9{font-size:1077.3759px;}
	.st10{display:none;fill:#69C6DE;}
</style>
  <rect x="-363.66" y="-325.29" class="st0" width="4640.79" height="3541.54"/>
  <path class="st1" d="M1897.55,930.08c-118.17-298.55-436.27-466.63-740.32-398.5c-320.36,71.79-540.31,386.82-494.7,722.57
	c-7.77,2.9-19.74,7.41-34.26,13.11c-190.15,74.66-302.47,118.77-364.99,192.48c-100.17,118.09-95.62,339.43,4.75,494.26
	c86.94,134.09,237.29,205.24,361.79,211.09c6.9,0.32,12.15,0.37,14.49,0.39c119.26,1.13,645.38,4.4,1898.02,11.41
	c224.13-39.37,383.88-238.64,374.26-457.66c-8.98-204.34-163.4-380.4-371.76-417.74c-1.4-29.28-12.93-209.27-162.89-328.63
	C2249.07,867.08,2059.81,850.54,1897.55,930.08z"/>
  <path class="st1" d="M2505.99,2172.61"/>
  <path class="st1" d="M1897.55,930.08c-110.63-314.46-442.96-495.47-761.7-419.88c-327.76,77.73-544.99,403.97-488.32,742.19
	c37.43,11.26,74.85,22.51,112.28,33.77c-54.32-290.74,131.35-573.27,410.63-638.32c266.67-62.11,546.4,90.9,639.79,357.09
	C1839.33,979.98,1868.44,955.03,1897.55,930.08z"/>
  <path class="st1" d="M647.44,1251.91c-3.07,0.32-7.44,0.8-12.65,1.47c-47,6-269.46,34.37-383.71,200.9
	c-99.89,145.6-89.65,356.63,11.41,505.43c0,0,129.95,191.33,366.77,205.22c4.98,0.29,10.83,0.22,10.87,0.22h0
	c2.06,0,3.38-0.05,4.1-0.13c-41.36-11.45-223.47-66.71-317.58-245.23c-22.57-42.81-82.94-157.31-43.49-290.85
	c44.03-149.02,180.41-213.56,208.16-226.69c164.76-77.97,377.08-35.25,547.49,102.65c-22.9-39.6-67.57-104.79-145.43-160.4
	C794.25,1273.68,695.14,1256.84,647.44,1251.91z"/>
  <path class="st1" d="M663.21,2219.3"/>
  <path class="st2" d="M1897.55,930.08c-33.25,17.34-142.19,79.46-198.89,213.86c-41.14,97.53-34.55,185.18-28.87,225.62
	c17.9-49.74,64.95-157.05,176.53-231.04c112.27-74.45,307.66-126.95,445.44-23.02c82.44,62.18,109.66,154.27,119.06,196.32
	c44.67-3.45,89.35-6.89,134.02-10.34c-1.4-29.28-12.93-209.27-162.89-328.63C2249.07,867.08,2059.81,850.54,1897.55,930.08z"/>
  <path class="st3" d="M1446.66,2577.52"/>
  <linearGradient id="SVGID_1_" gradientUnits="userSpaceOnUse" x1="1669.7871" y1="1169.2684" x2="2483.478"
    y2="1169.2684">
	<stop offset="5.586592e-03" style="stop-color:#40B0E5"/>
    <stop offset="1" style="stop-color:#009FE3"/>
</linearGradient>
  <path class="st4" d="M1994.86,986.75c-40.69,10.12-149.81,38.96-234.18,143.29c-78.43,96.99-88.91,201.66-90.89,239.52
	c17.9-49.74,64.95-157.05,176.53-231.04c112.27-74.45,307.66-126.95,445.44-23.02c82.44,62.18,109.66,154.27,119.06,196.32
	c24.22-4.01,48.44-8.01,72.66-12.02c-3.27-30.78-21.43-169.64-140.03-260.65C2206.56,934.09,2042.75,974.84,1994.86,986.75z"/>
  <path class="st3" d="M2059.01,1787.66c8.15-17.79,137.75-289.94,388.16-309.03c33.82-2.58,175.05-13.35,268.4,86.61
	c77.53,83.03,74.73,191.8,73.78,228.83c-5.86,227.83-220.36,366.19-247.01,382.81c224.13-39.37,383.88-238.64,374.26-457.66
	c-8.98-204.34-163.4-380.4-371.76-417.74c-19.36-2.27-234.79-23.76-382.1,144C2037.48,1588.13,2055.67,1760.35,2059.01,1787.66z"/>
  <linearGradient id="SVGID_2_" gradientUnits="userSpaceOnUse" x1="2059.0149" y1="1783.834" x2="2866.5127"
    y2="1783.834">
	<stop offset="0" style="stop-color:#69C6DE"/>
    <stop offset="1" style="stop-color:#1EB8DA"/>
</linearGradient>
  <path class="st5" d="M2059.01,1787.66c8.15-17.79,137.75-289.94,388.16-309.03c33.82-2.58,175.05-13.35,268.4,86.61
	c77.53,83.03,74.73,191.8,73.78,228.83c-5.86,227.83-220.36,366.19-247.01,382.81c234.37-77.7,361.71-304.38,314.38-496.16
	c-34.65-140.38-161.94-258.23-310.1-284.44c-125.73-22.24-224.63,28.91-254.5,44.91
	C2100.58,1543.83,2063.58,1758.35,2059.01,1787.66z"/>
  <path class="st6" d="M3538.94,2397.17"/>
  <circle class="st1" cx="1124.44" cy="1258.71" r="35.64"/>
  <circle class="st1" cx="743.59" cy="1506.1" r="29.34"/>
  <circle class="st1" cx="438.59" cy="1656.1" r="45.77"/>
  <circle class="st1" cx="476.36" cy="1933.85" r="35.67"/>
  <circle class="st1" cx="873.59" cy="1842.1" r="42.57"/>
  <circle class="st1" cx="1100.33" cy="2073.23" r="32.75"/>
  <text transform="matrix(1 0 0 1 847.8486 2005.2168)" class="st7 st8 st9">T</text>
  <text transform="matrix(1 0 0 1 887.3809 1975.0957)" class="st10 st8 st9">T</text>
</svg>
